<mxfile host="app.diagrams.net" modified="2021-06-12T17:28:50.092Z" agent="5.0 (Windows NT 10.0; Win64; x64) AppleWebKit/537.36 (KHTML, like Gecko) Chrome/91.0.4472.77 Safari/537.36" etag="8hBsDY4UeCebIMykjkpZ" version="14.7.7" type="github">
  <diagram id="7W_bSikG0Ro8cMen8HLj" name="Page-1">
    <mxGraphModel dx="868" dy="520" grid="1" gridSize="10" guides="1" tooltips="1" connect="1" arrows="1" fold="1" page="1" pageScale="1" pageWidth="827" pageHeight="1169" math="0" shadow="0">
      <root>
        <mxCell id="0" />
        <mxCell id="1" parent="0" />
        <mxCell id="x5U-Hr4FzzjMvdnEWcWu-81" value="" style="edgeStyle=orthogonalEdgeStyle;rounded=0;orthogonalLoop=1;jettySize=auto;html=1;fontSize=12;" edge="1" parent="1" source="x5U-Hr4FzzjMvdnEWcWu-1" target="x5U-Hr4FzzjMvdnEWcWu-40">
          <mxGeometry relative="1" as="geometry" />
        </mxCell>
        <mxCell id="x5U-Hr4FzzjMvdnEWcWu-1" value="&lt;b&gt;&lt;font style=&quot;font-size: 15px&quot;&gt;INICIO&lt;/font&gt;&lt;/b&gt;&lt;br&gt;Comienzo de Dia" style="ellipse;whiteSpace=wrap;html=1;" vertex="1" parent="1">
          <mxGeometry x="354" y="50" width="120" height="60" as="geometry" />
        </mxCell>
        <mxCell id="x5U-Hr4FzzjMvdnEWcWu-28" value="" style="edgeStyle=orthogonalEdgeStyle;rounded=0;orthogonalLoop=1;jettySize=auto;html=1;" edge="1" parent="1" source="x5U-Hr4FzzjMvdnEWcWu-5" target="x5U-Hr4FzzjMvdnEWcWu-26">
          <mxGeometry relative="1" as="geometry" />
        </mxCell>
        <mxCell id="x5U-Hr4FzzjMvdnEWcWu-5" value="Seg=Seg+1" style="rounded=0;whiteSpace=wrap;html=1;" vertex="1" parent="1">
          <mxGeometry x="354" y="250" width="120" height="50" as="geometry" />
        </mxCell>
        <mxCell id="x5U-Hr4FzzjMvdnEWcWu-30" value="" style="edgeStyle=orthogonalEdgeStyle;rounded=0;orthogonalLoop=1;jettySize=auto;html=1;" edge="1" parent="1" source="x5U-Hr4FzzjMvdnEWcWu-26" target="x5U-Hr4FzzjMvdnEWcWu-31">
          <mxGeometry relative="1" as="geometry">
            <mxPoint x="414" y="420" as="targetPoint" />
          </mxGeometry>
        </mxCell>
        <mxCell id="x5U-Hr4FzzjMvdnEWcWu-26" value="Seg=60" style="rhombus;whiteSpace=wrap;html=1;" vertex="1" parent="1">
          <mxGeometry x="374" y="320" width="80" height="80" as="geometry" />
        </mxCell>
        <mxCell id="x5U-Hr4FzzjMvdnEWcWu-76" value="" style="edgeStyle=orthogonalEdgeStyle;rounded=0;orthogonalLoop=1;jettySize=auto;html=1;fontSize=12;" edge="1" parent="1" source="x5U-Hr4FzzjMvdnEWcWu-31" target="x5U-Hr4FzzjMvdnEWcWu-53">
          <mxGeometry relative="1" as="geometry" />
        </mxCell>
        <mxCell id="x5U-Hr4FzzjMvdnEWcWu-31" value="Si" style="text;html=1;strokeColor=none;fillColor=none;align=center;verticalAlign=middle;whiteSpace=wrap;rounded=0;" vertex="1" parent="1">
          <mxGeometry x="394" y="420" width="40" height="20" as="geometry" />
        </mxCell>
        <mxCell id="x5U-Hr4FzzjMvdnEWcWu-43" value="" style="edgeStyle=orthogonalEdgeStyle;rounded=0;orthogonalLoop=1;jettySize=auto;html=1;" edge="1" parent="1" source="x5U-Hr4FzzjMvdnEWcWu-40" target="x5U-Hr4FzzjMvdnEWcWu-5">
          <mxGeometry relative="1" as="geometry" />
        </mxCell>
        <mxCell id="x5U-Hr4FzzjMvdnEWcWu-40" value="Funciona?" style="rhombus;whiteSpace=wrap;html=1;" vertex="1" parent="1">
          <mxGeometry x="374" y="150" width="80" height="80" as="geometry" />
        </mxCell>
        <mxCell id="x5U-Hr4FzzjMvdnEWcWu-42" value="" style="endArrow=classic;html=1;exitX=0;exitY=0.5;exitDx=0;exitDy=0;entryX=0;entryY=0.5;entryDx=0;entryDy=0;" edge="1" parent="1" source="x5U-Hr4FzzjMvdnEWcWu-40" target="x5U-Hr4FzzjMvdnEWcWu-65">
          <mxGeometry width="50" height="50" relative="1" as="geometry">
            <mxPoint x="390" y="240" as="sourcePoint" />
            <mxPoint x="200" y="1060" as="targetPoint" />
            <Array as="points">
              <mxPoint x="200" y="190" />
              <mxPoint x="200" y="1010" />
            </Array>
          </mxGeometry>
        </mxCell>
        <mxCell id="x5U-Hr4FzzjMvdnEWcWu-50" value="" style="edgeStyle=orthogonalEdgeStyle;rounded=0;orthogonalLoop=1;jettySize=auto;html=1;" edge="1" parent="1" source="x5U-Hr4FzzjMvdnEWcWu-47" target="x5U-Hr4FzzjMvdnEWcWu-49">
          <mxGeometry relative="1" as="geometry" />
        </mxCell>
        <mxCell id="x5U-Hr4FzzjMvdnEWcWu-47" value="Min=60" style="rhombus;whiteSpace=wrap;html=1;" vertex="1" parent="1">
          <mxGeometry x="374" y="570" width="80" height="80" as="geometry" />
        </mxCell>
        <mxCell id="x5U-Hr4FzzjMvdnEWcWu-79" value="" style="edgeStyle=orthogonalEdgeStyle;rounded=0;orthogonalLoop=1;jettySize=auto;html=1;fontSize=12;" edge="1" parent="1" source="x5U-Hr4FzzjMvdnEWcWu-49" target="x5U-Hr4FzzjMvdnEWcWu-58">
          <mxGeometry relative="1" as="geometry" />
        </mxCell>
        <mxCell id="x5U-Hr4FzzjMvdnEWcWu-49" value="Si" style="text;html=1;strokeColor=none;fillColor=none;align=center;verticalAlign=middle;whiteSpace=wrap;rounded=0;" vertex="1" parent="1">
          <mxGeometry x="394" y="670" width="40" height="20" as="geometry" />
        </mxCell>
        <mxCell id="x5U-Hr4FzzjMvdnEWcWu-55" value="" style="edgeStyle=orthogonalEdgeStyle;rounded=0;orthogonalLoop=1;jettySize=auto;html=1;" edge="1" parent="1" source="x5U-Hr4FzzjMvdnEWcWu-53" target="x5U-Hr4FzzjMvdnEWcWu-47">
          <mxGeometry relative="1" as="geometry" />
        </mxCell>
        <mxCell id="x5U-Hr4FzzjMvdnEWcWu-53" value="Min=Min+1" style="rounded=0;whiteSpace=wrap;html=1;" vertex="1" parent="1">
          <mxGeometry x="354" y="470" width="120" height="60" as="geometry" />
        </mxCell>
        <mxCell id="x5U-Hr4FzzjMvdnEWcWu-61" value="" style="edgeStyle=orthogonalEdgeStyle;rounded=0;orthogonalLoop=1;jettySize=auto;html=1;" edge="1" parent="1" source="x5U-Hr4FzzjMvdnEWcWu-58" target="x5U-Hr4FzzjMvdnEWcWu-60">
          <mxGeometry relative="1" as="geometry" />
        </mxCell>
        <mxCell id="x5U-Hr4FzzjMvdnEWcWu-58" value="Hora=Hora+1" style="whiteSpace=wrap;html=1;" vertex="1" parent="1">
          <mxGeometry x="354" y="720" width="120" height="60" as="geometry" />
        </mxCell>
        <mxCell id="x5U-Hr4FzzjMvdnEWcWu-63" value="" style="edgeStyle=orthogonalEdgeStyle;rounded=0;orthogonalLoop=1;jettySize=auto;html=1;" edge="1" parent="1" source="x5U-Hr4FzzjMvdnEWcWu-60" target="x5U-Hr4FzzjMvdnEWcWu-62">
          <mxGeometry relative="1" as="geometry" />
        </mxCell>
        <mxCell id="x5U-Hr4FzzjMvdnEWcWu-60" value="Hora=24" style="rhombus;whiteSpace=wrap;html=1;" vertex="1" parent="1">
          <mxGeometry x="374" y="810" width="80" height="80" as="geometry" />
        </mxCell>
        <mxCell id="x5U-Hr4FzzjMvdnEWcWu-70" value="" style="edgeStyle=orthogonalEdgeStyle;rounded=0;orthogonalLoop=1;jettySize=auto;html=1;fontSize=12;" edge="1" parent="1" source="x5U-Hr4FzzjMvdnEWcWu-62" target="x5U-Hr4FzzjMvdnEWcWu-65">
          <mxGeometry relative="1" as="geometry" />
        </mxCell>
        <mxCell id="x5U-Hr4FzzjMvdnEWcWu-62" value="Si" style="text;html=1;strokeColor=none;fillColor=none;align=center;verticalAlign=middle;whiteSpace=wrap;rounded=0;" vertex="1" parent="1">
          <mxGeometry x="394" y="920" width="40" height="20" as="geometry" />
        </mxCell>
        <mxCell id="x5U-Hr4FzzjMvdnEWcWu-65" value="FIN&lt;br style=&quot;font-size: 12px&quot;&gt;&lt;font style=&quot;font-size: 12px&quot;&gt;&lt;span style=&quot;font-weight: 400&quot;&gt;Termina el Dia&lt;/span&gt;&lt;br&gt;&lt;/font&gt;" style="ellipse;whiteSpace=wrap;html=1;fontStyle=1;fontSize=15;" vertex="1" parent="1">
          <mxGeometry x="354" y="980" width="120" height="60" as="geometry" />
        </mxCell>
        <mxCell id="x5U-Hr4FzzjMvdnEWcWu-67" value="No" style="text;html=1;strokeColor=none;fillColor=none;align=center;verticalAlign=middle;whiteSpace=wrap;rounded=0;fontSize=12;" vertex="1" parent="1">
          <mxGeometry x="260" y="170" width="40" height="20" as="geometry" />
        </mxCell>
        <mxCell id="x5U-Hr4FzzjMvdnEWcWu-71" value="" style="endArrow=classic;html=1;fontSize=12;exitX=1;exitY=0.5;exitDx=0;exitDy=0;entryX=1;entryY=0.5;entryDx=0;entryDy=0;" edge="1" parent="1" source="x5U-Hr4FzzjMvdnEWcWu-26" target="x5U-Hr4FzzjMvdnEWcWu-5">
          <mxGeometry width="50" height="50" relative="1" as="geometry">
            <mxPoint x="390" y="310" as="sourcePoint" />
            <mxPoint x="600" y="270" as="targetPoint" />
            <Array as="points">
              <mxPoint x="600" y="360" />
              <mxPoint x="600" y="275" />
            </Array>
          </mxGeometry>
        </mxCell>
        <mxCell id="x5U-Hr4FzzjMvdnEWcWu-72" value="No" style="text;html=1;strokeColor=none;fillColor=none;align=center;verticalAlign=middle;whiteSpace=wrap;rounded=0;fontSize=12;" vertex="1" parent="1">
          <mxGeometry x="500" y="340" width="40" height="20" as="geometry" />
        </mxCell>
        <mxCell id="x5U-Hr4FzzjMvdnEWcWu-74" value="No" style="text;html=1;strokeColor=none;fillColor=none;align=center;verticalAlign=middle;whiteSpace=wrap;rounded=0;fontSize=12;" vertex="1" parent="1">
          <mxGeometry x="500" y="590" width="40" height="20" as="geometry" />
        </mxCell>
        <mxCell id="x5U-Hr4FzzjMvdnEWcWu-77" value="" style="endArrow=none;html=1;fontSize=12;exitX=1;exitY=0.5;exitDx=0;exitDy=0;" edge="1" parent="1" source="x5U-Hr4FzzjMvdnEWcWu-47">
          <mxGeometry width="50" height="50" relative="1" as="geometry">
            <mxPoint x="380" y="500" as="sourcePoint" />
            <mxPoint x="600" y="340" as="targetPoint" />
            <Array as="points">
              <mxPoint x="600" y="610" />
            </Array>
          </mxGeometry>
        </mxCell>
        <mxCell id="x5U-Hr4FzzjMvdnEWcWu-78" value="" style="endArrow=none;html=1;fontSize=12;exitX=1;exitY=0.5;exitDx=0;exitDy=0;" edge="1" parent="1" source="x5U-Hr4FzzjMvdnEWcWu-60">
          <mxGeometry width="50" height="50" relative="1" as="geometry">
            <mxPoint x="380" y="900" as="sourcePoint" />
            <mxPoint x="600" y="590" as="targetPoint" />
            <Array as="points">
              <mxPoint x="600" y="850" />
            </Array>
          </mxGeometry>
        </mxCell>
        <mxCell id="x5U-Hr4FzzjMvdnEWcWu-80" value="No" style="text;html=1;strokeColor=none;fillColor=none;align=center;verticalAlign=middle;whiteSpace=wrap;rounded=0;fontSize=12;" vertex="1" parent="1">
          <mxGeometry x="500" y="830" width="40" height="20" as="geometry" />
        </mxCell>
      </root>
    </mxGraphModel>
  </diagram>
</mxfile>
